<svg width="31" height="36" viewBox="0 0 31 36" fill="none" xmlns="http://www.w3.org/2000/svg">
<path d="M29.2015 11.2787L27.371 8.22785C27.2609 8.0439 27.0623 7.93164 26.8478 7.93164H3.66132C3.44681 7.93164 3.2482 8.0439 3.13809 8.22785L1.30758 11.2787C1.19443 11.4675 1.19174 11.7022 1.29989 11.8935C1.40804 12.0848 1.61076 12.2031 1.83081 12.2031H28.6783C28.8983 12.2031 29.1009 12.0848 29.2092 11.8935C29.3175 11.7022 29.3147 11.4673 29.2015 11.2787ZM2.90838 10.9829L4.00704 9.15239H26.5024L27.6007 10.9829H2.90838Z" fill="#5ABFB8"/>
<path d="M29.2878 11.562C29.271 11.2377 29.0032 10.9832 28.6782 10.9832H1.83077C1.50579 10.9832 1.238 11.2375 1.2212 11.562L0.000803723 35.3586C-0.00777677 35.5255 0.0526444 35.6889 0.167766 35.8101C0.283066 35.9311 0.442878 35.9999 0.610197 35.9999H29.8983C30.0654 35.9999 30.2254 35.9313 30.3413 35.8101C30.4562 35.6889 30.5166 35.5257 30.5082 35.3586L29.2878 11.562ZM1.2523 34.7795L2.41014 12.2034H28.0982L29.256 34.7795H1.2523Z" fill="#5ABFB8"/>
<path d="M19.8315 13.4236C18.822 13.4236 18.001 14.2446 18.001 15.2541C18.001 16.2635 18.822 17.0846 19.8315 17.0846C20.8409 17.0846 21.662 16.2635 21.662 15.2541C21.662 14.2446 20.8409 13.4236 19.8315 13.4236ZM19.8315 15.8644C19.4949 15.8644 19.2214 15.5907 19.2214 15.2543C19.2214 14.9178 19.4951 14.6442 19.8315 14.6442C20.1679 14.6442 20.4416 14.9178 20.4416 15.2543C20.4416 15.5907 20.1679 15.8644 19.8315 15.8644Z" fill="#5ABFB8"/>
<path d="M10.6791 13.4236C9.66968 13.4236 8.84863 14.2446 8.84863 15.2541C8.84863 16.2635 9.66968 17.0846 10.6791 17.0846C11.6886 17.0846 12.5096 16.2635 12.5096 15.2541C12.5096 14.2446 11.6886 13.4236 10.6791 13.4236ZM10.6791 15.8644C10.3427 15.8644 10.069 15.5907 10.069 15.2543C10.069 14.9178 10.3427 14.6442 10.6791 14.6442C11.0156 14.6442 11.2892 14.9178 11.2892 15.2543C11.2892 15.5907 11.0156 15.8644 10.6791 15.8644Z" fill="#5ABFB8"/>
<path d="M15.2549 0C12.3949 0 10.0684 2.32656 10.0684 5.18637V8.54224C10.0684 8.87902 10.3417 9.15235 10.6785 9.15235H19.831C20.1678 9.15235 20.4411 8.87902 20.4411 8.54224V5.18637C20.4413 2.32656 18.1147 0 15.2549 0ZM19.2209 7.93213H11.2888V5.18637C11.2888 2.9996 13.068 1.22022 15.2549 1.22022C17.4419 1.22022 19.2211 2.99942 19.2211 5.18637V7.93213H19.2209Z" fill="#5ABFB8"/>
<path d="M19.831 15.2542H19.784C19.4472 15.2542 19.1739 15.5275 19.1739 15.8643C19.1739 15.9476 19.1903 16.0271 19.2209 16.0995V19.2201C19.2209 21.4069 17.4417 23.1863 15.2547 23.1863C13.0678 23.1863 11.2886 21.4071 11.2886 19.2201V15.8644C11.2886 15.5277 11.0153 15.2543 10.6785 15.2543C10.3417 15.2543 10.0684 15.5277 10.0684 15.8644V19.2203C10.0684 22.0801 12.3949 24.4067 15.2547 24.4067C18.1145 24.4067 20.4411 22.0801 20.4411 19.2203V15.8644C20.4411 15.5277 20.1678 15.2542 19.831 15.2542Z" fill="#5ABFB8"/>
</svg>
