<svg width="43" height="43" viewBox="0 0 43 43" fill="none" xmlns="http://www.w3.org/2000/svg">
<g clip-path="url(#clip0)">
<path d="M38.9651 19.1145H21.6964C19.8888 19.1145 18.4183 20.5851 18.4183 22.3926V35.7377L17.7809 36.1244C17.5352 36.2734 17.2723 36.3785 17.0024 36.4427V19.4861L30.9401 11.0322C31.0023 11.2598 31.0357 11.4965 31.0357 11.7369V17.079C31.0357 17.4221 31.3139 17.7004 31.6571 17.7004C32.0003 17.7004 32.2785 17.4221 32.2785 17.079V11.7369C32.2785 10.3703 31.5533 9.07995 30.386 8.3693L18.4307 1.0923C17.1664 0.322742 15.5955 0.322659 14.3311 1.0923L2.37598 8.36939C1.20863 9.07995 0.483398 10.3703 0.483398 11.7369V26.5649C0.483398 27.934 1.21062 29.2256 2.3812 29.9357L14.3364 37.187C14.967 37.5694 15.674 37.7607 16.3809 37.7607C17.0853 37.7607 17.7894 37.5706 18.4182 37.191V39.6613C18.4182 41.4689 19.8888 42.9394 21.6963 42.9394H38.9649C40.7725 42.9394 42.243 41.4688 42.243 39.6613V22.3926C42.2431 20.5851 40.7725 19.1145 38.9651 19.1145ZM3.02581 28.8731C2.22419 28.3869 1.72623 27.5025 1.72623 26.565V11.7369C1.72623 11.4966 1.75945 11.2599 1.82176 11.0323L3.44199 12.015C3.54274 12.0761 3.65393 12.1052 3.76363 12.1052C3.97367 12.1052 4.17866 11.9986 4.29556 11.806C4.47354 11.5125 4.37999 11.1304 4.08652 10.9524L2.41591 9.93908C2.59049 9.74296 2.79348 9.57029 3.02216 9.43109L14.9773 2.15401C15.8431 1.62705 16.9188 1.62705 17.7845 2.15401L29.7398 9.43109C29.9685 9.57029 30.1714 9.74288 30.3461 9.93908L16.3809 18.4094L6.33869 12.3183C6.04522 12.1404 5.663 12.234 5.48512 12.5274C5.30714 12.8209 5.40069 13.203 5.69416 13.381L15.7595 19.486V36.4425C15.4895 36.3783 15.2266 36.2733 14.981 36.1242L3.02581 28.8731ZM41.0003 39.6613C41.0003 40.7836 40.0872 41.6965 38.9651 41.6965H21.6964C20.5741 41.6965 19.6611 40.7835 19.6611 39.6613V22.3926C19.6611 21.2703 20.5742 20.3574 21.6964 20.3574H38.965C40.0872 20.3574 41.0002 21.2704 41.0002 22.3926V39.6613H41.0003Z" fill="#5ABFB8"/>
<path d="M8.72381 21.2796C8.18807 20.9703 7.62109 20.943 7.16837 21.2043C6.6574 21.4994 6.36426 22.1163 6.36426 22.8969C6.36426 24.1653 7.12777 25.5997 8.10239 26.1624C8.39429 26.3309 8.69555 26.4157 8.98256 26.4157C9.22218 26.4157 9.45186 26.3566 9.65783 26.2377C10.1689 25.9426 10.4619 25.3257 10.4619 24.5451C10.4619 23.2768 9.69852 21.8424 8.72381 21.2796ZM9.03642 25.1614C8.98107 25.1932 8.85836 25.1637 8.72381 25.0861C8.12891 24.7426 7.60709 23.7196 7.60709 22.8969C7.60709 22.4929 7.72656 22.3171 7.78978 22.2806C7.80461 22.2721 7.82425 22.2679 7.84761 22.2679C7.91166 22.2679 8.00388 22.299 8.10239 22.3559C8.69729 22.6994 9.21912 23.7224 9.21912 24.5451C9.21912 24.9491 9.09964 25.1249 9.03642 25.1614Z" fill="#5ABFB8"/>
<path d="M16.3959 11.7469C17.971 11.7469 19.2049 10.8678 19.2049 9.74561C19.2049 8.62342 17.971 7.74433 16.3959 7.74433C14.8207 7.74433 13.5869 8.62342 13.5869 9.74561C13.5868 10.8678 14.8207 11.7469 16.3959 11.7469ZM16.3959 8.98716C17.3519 8.98716 17.9621 9.43631 17.9621 9.74561C17.9621 10.0549 17.3519 10.5041 16.3959 10.5041C15.4398 10.5041 14.8297 10.0548 14.8297 9.74561C14.8297 9.4364 15.4398 8.98716 16.3959 8.98716Z" fill="#5ABFB8"/>
<path d="M23.1918 11.7469C24.7669 11.7469 26.0007 10.8678 26.0007 9.74561C26.0007 8.62342 24.7669 7.74433 23.1918 7.74433C21.6167 7.74433 20.3828 8.62342 20.3828 9.74561C20.3828 10.8678 21.6167 11.7469 23.1918 11.7469ZM23.1918 8.98716C24.1478 8.98716 24.7579 9.43631 24.7579 9.74561C24.7579 10.0549 24.1478 10.5041 23.1918 10.5041C22.2358 10.5041 21.6256 10.0548 21.6256 9.74561C21.6256 9.4364 22.2358 8.98716 23.1918 8.98716Z" fill="#5ABFB8"/>
<path d="M9.60192 11.7469C11.1771 11.7469 12.4109 10.8678 12.4109 9.74561C12.4109 8.62342 11.177 7.74433 9.60192 7.74433C8.02685 7.74433 6.79297 8.62342 6.79297 9.74561C6.79289 10.8678 8.02676 11.7469 9.60192 11.7469ZM9.60192 8.98716C10.558 8.98716 11.168 9.43631 11.168 9.74561C11.168 10.0549 10.5579 10.5041 9.60192 10.5041C8.64594 10.5041 8.03579 10.0548 8.03579 9.74561C8.03579 9.4364 8.64586 8.98716 9.60192 8.98716Z" fill="#5ABFB8"/>
<path d="M30.3307 28.413C28.8894 28.413 27.7168 29.5855 27.7168 31.0269C27.7168 32.4682 28.8894 33.6409 30.3307 33.6409C31.7721 33.6409 32.9446 32.4682 32.9446 31.0269C32.9446 29.5855 31.7721 28.413 30.3307 28.413ZM30.3307 32.3981C29.5747 32.3981 28.9596 31.783 28.9596 31.027C28.9596 30.2709 29.5747 29.6559 30.3307 29.6559C31.0868 29.6559 31.7018 30.2709 31.7018 31.027C31.7018 31.783 31.0868 32.3981 30.3307 32.3981Z" fill="#5ABFB8"/>
<path d="M24.3532 22.4354C22.9118 22.4354 21.7393 23.6079 21.7393 25.0493C21.7393 26.4906 22.9118 27.6632 24.3532 27.6632C25.7945 27.6632 26.9671 26.4906 26.9671 25.0493C26.9671 23.6079 25.7945 22.4354 24.3532 22.4354ZM24.3532 26.4205C23.5971 26.4205 22.9821 25.8054 22.9821 25.0494C22.9821 24.2933 23.5971 23.6783 24.3532 23.6783C25.1092 23.6783 25.7243 24.2933 25.7243 25.0494C25.7243 25.8054 25.1092 26.4205 24.3532 26.4205Z" fill="#5ABFB8"/>
<path d="M36.3073 34.3906C34.8659 34.3906 33.6934 35.5632 33.6934 37.0045C33.6934 38.4459 34.8659 39.6185 36.3073 39.6185C37.7486 39.6185 38.9213 38.4459 38.9213 37.0045C38.9213 35.5632 37.7486 34.3906 36.3073 34.3906ZM36.3073 38.3757C35.5512 38.3757 34.9362 37.7607 34.9362 37.0046C34.9362 36.2486 35.5512 35.6335 36.3073 35.6335C37.0633 35.6335 37.6784 36.2486 37.6784 37.0046C37.6784 37.7607 37.0633 38.3757 36.3073 38.3757Z" fill="#5ABFB8"/>
</g>
<defs>
<clipPath id="clip0">
<rect x="0.151367" y="0.515137" width="42.4242" height="42.4242" fill="white"/>
</clipPath>
</defs>
</svg>
