<svg width="36" height="36" viewBox="0 0 36 36" fill="none" xmlns="http://www.w3.org/2000/svg">
<path d="M18 0C8.05898 0 0 8.05898 0 18C0 27.941 8.05898 36 18 36C27.941 36 36 27.941 36 18C35.9889 8.06367 27.9363 0.0111329 18 0ZM31.9397 8.63408L30.6923 13.9368L24.1201 16.1273L18.6 11.712V5.20605L24.9 2.68623C27.7523 3.97852 30.1893 6.0375 31.9397 8.63408ZM32.0399 27.2071L26.0897 28.1467L22.8498 23.8667L24.5004 17.2667L30.9996 15.1008L34.7227 19.5683C34.4689 22.2961 33.5476 24.9196 32.0399 27.2071ZM9.93662 28.1508L3.96006 27.2071C2.45244 24.919 1.53135 22.2949 1.27793 19.5665L4.99805 15.099L11.4973 17.2649L13.1479 23.8685L9.93662 28.1508ZM1.20527 17.7762C1.23721 15.0996 1.9125 12.4696 3.17402 10.1089L4.14727 14.2488L1.20527 17.7762ZM14.2685 23.4L12.6768 17.0268L18 12.7685L23.3244 17.0285L21.7315 23.4H14.2685ZM31.8527 14.2465L32.826 10.1065C34.0875 12.4673 34.7628 15.097 34.7947 17.7738L31.8527 14.2465ZM23.2638 2.04902L18 4.1543L12.7081 2.05869C16.1335 0.916992 19.8363 0.91377 23.2638 2.04902ZM11.0713 2.7L17.4 5.20811V11.712L11.8799 16.1273L5.30771 13.9368L4.06025 8.63408C5.80488 6.04688 8.23125 3.99316 11.0713 2.7ZM4.9626 28.5803L9.83994 29.3508L12.7896 33.9709C9.71748 32.9619 7.00049 31.0907 4.9626 28.5803ZM14.5099 34.4329L10.9295 28.8275L14.1 24.6H21.9L25.1159 28.848L21.9961 34.3157C19.5419 34.9201 16.9828 34.9611 14.5104 34.4358L14.5099 34.4329ZM23.6628 33.8153L26.2201 29.3399L31.0397 28.5797C29.1035 30.9642 26.5526 32.7744 23.6628 33.8153Z" fill="#5ABFB8"/>
</svg>
