<svg width="44" height="32" viewBox="0 0 44 32" fill="none" xmlns="http://www.w3.org/2000/svg">
<path d="M5.24521 19.0215C4.86642 19.2019 4.6993 19.656 4.86811 20.044L6.59829 23.8136C6.6833 24.0013 6.83837 24.1474 7.02909 24.2195C7.11265 24.2503 7.20127 24.2662 7.29037 24.2662C7.40186 24.2672 7.51191 24.243 7.61329 24.1963L20.6856 17.9995L19.5016 30.5639C19.4787 30.8113 19.5726 31.0544 19.7549 31.2197C20.328 31.7011 21.0423 31.9753 21.7854 32C21.9903 31.9998 22.194 31.9736 22.3927 31.9223C23.4539 31.6412 24.2768 30.6815 24.8381 29.0424L29.9824 13.5825L40.1708 8.7592C43.1698 7.33903 44.7153 4.45935 43.6775 2.21166C43.0884 1.03687 41.9603 0.2377 40.6708 0.0810445C39.238 -0.138421 37.7736 0.0903313 36.4723 0.736995L24.7148 6.33237L12.0735 1.31425C10.4815 0.705713 9.22066 0.721354 8.33642 1.36924C7.5945 1.98707 7.17237 2.91576 7.19043 3.88967C7.19814 4.13675 7.32071 4.36525 7.52106 4.50651L16.0333 10.4453L11.1584 12.7865L2.98405 10.6791C2.64909 10.5956 2.3004 10.7488 2.13064 11.0538L0.0931847 14.7762C-0.0125287 14.9734 -0.0291442 15.2075 0.0476726 15.4182C0.124008 15.6291 0.28631 15.796 0.493162 15.8767L6.54483 18.4132L5.24521 19.0215ZM8.7665 3.49961C8.81177 3.16968 8.97624 2.86932 9.22812 2.6567C9.66663 2.33655 10.4663 2.38347 11.535 2.78916L22.7927 7.24543L17.6558 9.68031L8.7665 3.49961ZM1.84625 14.7686L3.18416 12.3572L11.0505 14.3392C11.2201 14.3827 11.399 14.3663 11.5584 14.2927L37.1261 2.1728C38.1425 1.66398 39.2873 1.47873 40.4095 1.64198C41.1964 1.71555 41.8974 2.17647 42.2858 2.87495C42.9312 4.27996 41.6626 6.33237 39.5171 7.34685L30.6588 11.5614L31.1973 9.94548C31.3333 9.52977 31.111 9.08057 30.7014 8.94274C30.2913 8.8049 29.849 9.03047 29.7132 9.44619L23.3846 28.5582C23.0077 29.6433 22.5386 30.2912 22.0158 30.4312C21.692 30.4945 21.3568 30.43 21.0777 30.2521L22.6157 13.8631C22.6559 13.4322 22.3445 13.0498 21.9195 13.0089C21.495 12.9676 21.1181 13.2841 21.0777 13.715L20.8395 16.22L7.64387 22.4633L6.56025 20.122L8.72821 19.0921C9.00731 18.9673 9.18719 18.6872 9.18719 18.378C9.18719 18.0686 9.00731 17.7885 8.72821 17.6639L1.84625 14.7686Z" fill="#5ABFB8"/>
</svg>
