<svg width="36" height="36" viewBox="0 0 36 36" fill="none" xmlns="http://www.w3.org/2000/svg">
<path d="M35.4 34.8H32.4V16.2C32.4 15.8688 32.1318 15.6 31.8 15.6H28.2C27.8682 15.6 27.6 15.8688 27.6 16.2V34.8H26.4V24.6C26.4 24.2688 26.1319 24 25.8 24H22.2498C21.918 24 21.6499 24.2688 21.6499 24.6V34.8H20.4V21C20.4 20.6688 20.1319 20.4 19.8001 20.4H16.2001C15.8683 20.4 15.6001 20.6688 15.6001 21V34.8H14.4V23.4C14.4 23.0688 14.1318 22.8 13.8 22.8H10.2C9.86822 22.8 9.60005 23.0688 9.60005 23.4V34.8H8.40002V28.2C8.40002 27.8688 8.13185 27.6 7.80005 27.6H4.20005C3.86824 27.6 3.60007 27.8688 3.60007 28.2V34.8H0.599977C0.268172 34.8 0 35.0688 0 35.4C0 35.7311 0.268172 36 0.599977 36H4.19998C4.53178 36 4.79995 35.7312 4.79995 35.4V28.8H7.2V35.4C7.2 35.7312 7.46817 36 7.79998 36H10.2C10.5318 36 10.7999 35.7312 10.7999 35.4V24H13.1999V35.4C13.1999 35.7311 13.4681 35.9999 13.7999 35.9999H16.2C16.5318 35.9999 16.8 35.7311 16.8 35.4V21.6H19.2V35.4C19.2 35.7312 19.4681 36 19.7999 36H22.2498C22.5816 36 22.8497 35.7312 22.8497 35.4V25.2H25.2V35.4C25.2 35.7312 25.4682 36 25.8 36H28.2C28.5318 36 28.7999 35.7312 28.7999 35.4V16.8H31.1999V35.4C31.1999 35.7311 31.4681 35.9999 31.7999 35.9999H35.3999C35.7317 35.9999 35.9999 35.7311 35.9999 35.4C35.9999 35.0688 35.7318 34.8 35.4 34.8Z" fill="#5ABFB8"/>
<path d="M2.39998 22.8C3.72361 22.8 4.79995 21.7236 4.79995 20.4C4.79995 20.1168 4.74173 19.8492 4.65173 19.5967L16.4393 7.80905C16.8605 8.17207 17.4018 8.40002 17.9999 8.40002C18.4451 8.40002 18.8568 8.27044 19.2143 8.05866L21.9413 10.7857C21.7301 11.1433 21.5999 11.5549 21.5999 12C21.5999 13.3237 22.6763 14.4 23.9999 14.4C25.3235 14.4 26.3999 13.3236 26.3999 12C26.3999 11.556 26.2703 11.1457 26.0603 10.7886L32.3879 4.45978C32.7455 4.671 33.1565 4.79995 33.5999 4.79995C34.9235 4.79995 35.9999 3.72354 35.9999 2.39998C36 1.07641 34.9236 0 33.6 0C32.2765 0 31.2 1.07641 31.2 2.39998C31.2 2.844 31.3296 3.25434 31.5397 3.61139L25.2115 9.94022C24.8545 9.729 24.4434 9.60005 24 9.60005C23.5579 9.60005 23.1481 9.72844 22.7917 9.93846L20.0611 7.20844C20.2711 6.85202 20.4 6.44224 20.4 6.00005C20.4 4.67641 19.3236 3.60007 18.0001 3.60007C16.6764 3.60007 15.6001 4.67648 15.6001 6.00005C15.6001 6.28327 15.6583 6.55088 15.7483 6.80344L3.96063 18.591C3.53939 18.228 2.9982 18 2.39998 18C1.07641 18 0 19.0764 0 20.4C0 21.7235 1.07641 22.8 2.39998 22.8ZM33.6 1.20002C34.2612 1.20002 34.8 1.7382 34.8 2.40005C34.8 3.06183 34.2612 3.60007 33.6 3.60007C33.2724 3.60007 32.976 3.46746 32.7594 3.25448C32.757 3.25209 32.7564 3.24851 32.754 3.24612C32.7516 3.24373 32.748 3.24309 32.7456 3.2407C32.5326 3.02407 32.4 2.7277 32.4 2.40012C32.4 1.7382 32.9382 1.20002 33.6 1.20002ZM24 10.8C24.6612 10.8 25.2 11.3382 25.2 12C25.2 12.6618 24.6612 13.2 24 13.2C23.3382 13.2 22.8 12.6619 22.8 12C22.8 11.3382 23.3382 10.8 24 10.8ZM18 4.80002C18.6618 4.80002 19.2 5.3382 19.2 6.00005C19.2 6.66183 18.6619 7.20007 18 7.20007C17.3382 7.20007 16.8 6.6619 16.8 6.00005C16.8 5.3382 17.3382 4.80002 18 4.80002ZM2.39998 19.2C3.0612 19.2 3.6 19.7382 3.6 20.4C3.6 21.0618 3.0612 21.6001 2.39998 21.6001C1.7382 21.6001 1.19995 21.0619 1.19995 20.4C1.20002 19.7382 1.7382 19.2 2.39998 19.2Z" fill="#5ABFB8"/>
</svg>
