<svg width="44" height="44" viewBox="0 0 44 44" fill="none" xmlns="http://www.w3.org/2000/svg">
<path d="M43.2667 28.2332C43.6716 28.2332 44 27.9049 44 27.4999V21.6332C44 21.2283 43.6716 20.8999 43.2667 20.8999H34.0369L38.6518 16.285C38.9381 15.9987 38.9381 15.5345 38.6518 15.2481L34.6449 11.2412C34.3585 10.9549 33.8943 10.9549 33.6079 11.2412C32.4622 12.3869 30.6045 12.3869 29.4587 11.2412C28.313 10.0954 28.313 8.23772 29.4587 7.09197C29.745 6.80561 29.745 6.34141 29.4587 6.05504L26.1851 2.78144C25.8988 2.49517 25.4346 2.49517 25.1482 2.78144L7.02973 20.8999H0.733333C0.32835 20.8999 0 21.2283 0 21.6332V27.4999C0 27.9049 0.32835 28.2332 0.733333 28.2332C2.35336 28.2332 3.66667 29.5466 3.66667 31.1666C3.66667 32.7866 2.35336 34.0999 0.733333 34.0999C0.32835 34.0999 0 34.4283 0 34.8332V40.6999C0 41.1049 0.32835 41.4332 0.733333 41.4332H43.2667C43.6716 41.4332 44 41.1049 44 40.6999V34.8332C44 34.4283 43.6716 34.0999 43.2667 34.0999C41.6466 34.0999 40.3333 32.7866 40.3333 31.1666C40.3333 29.5466 41.6466 28.2332 43.2667 28.2332ZM25.6667 4.33684L27.9459 6.61604C26.5332 8.59329 26.9909 11.3414 28.9681 12.754C30.4981 13.8473 32.5539 13.8473 34.0839 12.754L37.0964 15.7666L31.9631 20.8999H29.6369L31.3185 19.2184C31.6047 18.932 31.6047 18.4678 31.3185 18.1814L23.2518 10.1148C22.9654 9.8285 22.5012 9.8285 22.2149 10.1148L11.4297 20.8999H9.1036L25.6667 4.33684ZM27.5631 20.8999H13.5036L22.7333 11.6702L29.7631 18.6999L27.5631 20.8999ZM38.9235 31.8959C39.2344 33.7455 40.6837 35.1948 42.5333 35.5057V39.9666H36.6667V37.0332H35.2V39.9666H8.8V39.2332H7.33333V39.9666H1.46667V35.5057C3.86311 35.1029 5.47928 32.8337 5.0765 30.4373C4.76557 28.5876 3.31641 27.1384 1.46667 26.8274V22.3666H7.33333V24.5666H8.8V22.3666H42.5333V26.8274C40.1369 27.2302 38.5207 29.4995 38.9235 31.8959Z" fill="#5ABFB8"/>
<path d="M36.6669 23.8332H35.2002V26.7666H36.6669V23.8332Z" fill="#5ABFB8"/>
<path d="M36.6669 28.2332H35.2002V31.1666H36.6669V28.2332Z" fill="#5ABFB8"/>
<path d="M36.6669 32.6332H35.2002V35.5666H36.6669V32.6332Z" fill="#5ABFB8"/>
<path d="M8.79967 26.0332H7.33301V28.9666H8.79967V26.0332Z" fill="#5ABFB8"/>
<path d="M8.79967 30.4332H7.33301V33.3666H8.79967V30.4332Z" fill="#5ABFB8"/>
<path d="M8.79967 34.8332H7.33301V37.7666H8.79967V34.8332Z" fill="#5ABFB8"/>
<path d="M32.2667 26.0332C31.4566 26.0332 30.8 25.3766 30.8 24.5666C30.8 24.1616 30.4717 23.8332 30.0667 23.8332H13.9333C13.5284 23.8332 13.2 24.1616 13.2 24.5666C13.2 25.3766 12.5434 26.0332 11.7333 26.0332C11.3283 26.0332 11 26.3616 11 26.7666V35.5666C11 35.9716 11.3283 36.2999 11.7333 36.2999C12.5434 36.2999 13.2 36.9565 13.2 37.7666C13.2 38.1716 13.5284 38.4999 13.9333 38.4999H30.0667C30.4717 38.4999 30.8 38.1716 30.8 37.7666C30.8 36.9565 31.4566 36.2999 32.2667 36.2999C32.6716 36.2999 33 35.9716 33 35.5666V26.7666C33 26.3616 32.6716 26.0332 32.2667 26.0332ZM31.5333 34.9256C30.5009 35.1946 29.6947 36.0008 29.4257 37.0332H14.5743C14.3053 36.0008 13.4991 35.1946 12.4667 34.9256V27.4075C13.4991 27.1386 14.3053 26.3323 14.5743 25.2999H29.4257C29.6947 26.3323 30.5009 27.1386 31.5333 27.4075V34.9256Z" fill="#5ABFB8"/>
</svg>
