<svg width="85" height="86" viewBox="0 0 85 86" fill="none" xmlns="http://www.w3.org/2000/svg">
<g clip-path="url(#clip0)">
<path d="M60.1194 82.6665C60.2556 82.5382 60.3357 82.4661 60.4158 82.386C63.1242 79.6855 65.8325 76.985 68.5328 74.2844C68.7572 74.0601 68.9976 73.8998 69.3261 73.9158C69.7428 73.9318 70.0232 74.1482 70.1835 74.5088C70.3437 74.8614 70.2876 75.214 70.0232 75.5105C69.855 75.6948 69.6626 75.8711 69.4864 76.0554C68.2604 77.2895 67.0344 78.5155 65.8085 79.7496C65.7524 79.8057 65.6963 79.8698 65.6162 79.9579C65.6883 80.0381 65.7524 80.1102 65.8245 80.1823C67.1947 81.5606 68.5649 82.9389 69.9431 84.3172C70.1835 84.5576 70.3117 84.8381 70.2556 85.1827C70.1915 85.5593 69.9671 85.8237 69.6146 85.9439C69.262 86.0641 68.9255 86 68.645 85.7276C68.1242 85.2067 67.6033 84.6858 67.0825 84.173C66.2011 83.2915 65.3197 82.41 64.4303 81.5366C64.3742 81.4805 64.3101 81.4244 64.2299 81.3523C64.1418 81.4324 64.0617 81.5125 63.9816 81.5927C62.6194 82.9469 61.2492 84.3092 59.887 85.6715C59.6707 85.8878 59.4303 86.0241 59.1098 86.0081C58.661 85.992 58.2764 85.6635 58.2123 85.2147C58.1963 85.1025 58.1963 84.9903 58.1963 84.8782C58.1963 79.5973 58.1963 74.3245 58.1963 69.0437C58.1963 68.9475 58.1963 68.8513 58.2043 68.7632C58.2524 68.2744 58.645 67.9138 59.1258 67.8977C59.6226 67.8817 60.0392 68.2343 60.1114 68.7311C60.1274 68.8513 60.1274 68.9796 60.1274 69.0998C60.1274 73.4911 60.1274 77.8825 60.1274 82.2658C60.1194 82.3619 60.1194 82.4821 60.1194 82.6665Z" fill="white"/>
<path d="M25.9467 80.9117C25.9788 81.0399 25.9948 81.1361 26.0268 81.2162C26.6118 83.0754 28.4547 84.2613 30.3938 84.029C31.3073 83.9168 32.0925 83.5481 32.7496 82.9151C33.03 82.6426 33.3505 82.5304 33.7352 82.6026C34.4082 82.7388 34.6967 83.5642 34.272 84.1251C34.2079 84.2053 34.1358 84.2774 34.0557 84.3495C32.8778 85.4313 31.4996 85.9842 29.889 85.9762C27.397 85.9682 25.1054 84.4296 24.264 82.0897C22.8297 78.075 25.49 74.7334 28.5108 74.0603C32.5573 73.1547 35.2896 76.0636 35.8105 78.5398C35.9066 79.0045 35.9627 79.4693 35.9547 79.9421C35.9387 80.487 35.5541 80.8797 35.0092 80.8957C34.6967 80.9037 34.3842 80.8957 34.0717 80.8957C31.4836 80.8957 28.9034 80.8957 26.3153 80.8957C26.2031 80.9117 26.0909 80.9117 25.9467 80.9117ZM25.9627 78.9725C28.615 78.9725 31.2432 78.9725 33.8714 78.9725C33.663 77.6663 32.2368 75.8793 29.9852 75.8472C27.6855 75.8152 26.2031 77.5862 25.9627 78.9725Z" fill="white"/>
<path d="M83.0123 84.4295C82.9402 84.4936 82.8601 84.5577 82.7879 84.6218C79.5828 87.2983 74.4466 85.9761 73.1565 81.6488C72.195 78.4354 74.094 75.0057 77.3072 74.1482C81.3777 73.0584 84.2142 75.9192 84.8152 78.4194C84.9354 78.9242 84.9995 79.4371 84.9995 79.958C84.9995 81.6007 84.9995 83.2435 84.9995 84.8862C84.9995 85.0144 84.9915 85.1507 84.9594 85.2789C84.8392 85.7517 84.4145 86.0402 83.9097 85.9921C83.461 85.952 83.1004 85.5674 83.0764 85.1026C83.0604 84.8862 83.0764 84.6779 83.0764 84.4615C83.0524 84.4455 83.0363 84.4375 83.0123 84.4295ZM78.9658 75.8471C76.6581 75.791 74.8472 77.7943 74.8472 79.9339C74.8392 82.0495 76.586 84.0608 78.9418 84.0608C81.2335 84.0528 83.0684 82.2338 83.0764 79.9499C83.0764 77.6581 81.1453 75.799 78.9658 75.8471Z" fill="white"/>
<path d="M10.1686 84.3892C10.0644 84.4693 10.0163 84.5094 9.97626 84.5415C8.83043 85.5271 7.50832 85.9919 6.0019 85.9839C3.48588 85.9759 1.13812 84.3491 0.36088 81.9692C-0.993287 77.8503 1.8112 74.725 4.64774 74.0679C7.82883 73.3307 11.074 75.2379 11.8993 78.3551C12.0356 78.86 12.0997 79.3728 12.0997 79.8937C12.0997 81.5765 12.0997 83.2513 12.0997 84.9341C12.0997 85.2226 12.0275 85.471 11.8352 85.6874C11.5708 85.9759 11.1622 86.08 10.8016 85.9358C10.425 85.7916 10.2086 85.5031 10.1766 85.1024C10.1525 84.886 10.1686 84.6697 10.1686 84.3892ZM1.94742 79.9418C1.93941 82.2336 3.7503 84.0607 6.02594 84.0687C8.32562 84.0767 10.1445 82.2576 10.1606 79.9658C10.1766 77.698 8.26152 75.8549 6.05799 75.8469C3.78235 75.8389 1.90735 77.7701 1.94742 79.9418Z" fill="white"/>
<path d="M40.5453 75.5184C40.6976 75.3982 40.7857 75.318 40.8819 75.2459C44.103 72.6175 49.1832 73.9718 50.4732 78.307C50.6014 78.7237 50.6656 79.1805 50.6736 79.6132C50.6976 81.4162 50.6816 83.2192 50.6896 85.0223C50.6896 85.4229 50.4011 85.8797 49.9123 85.9759C49.4636 86.064 49.0149 85.8396 48.8466 85.4229C48.7825 85.2546 48.7585 85.0543 48.7585 84.87C48.7505 83.2673 48.7585 81.6566 48.7505 80.0539C48.7505 79.6853 48.7184 79.3167 48.6383 78.9641C48.2377 77.2012 46.603 75.887 44.7921 75.8549C42.829 75.8229 41.1623 77.0409 40.6896 78.892C40.5934 79.2526 40.5534 79.6373 40.5534 80.0139C40.5373 81.6406 40.5453 83.2593 40.5453 84.886C40.5453 85.0383 40.5373 85.1905 40.4973 85.3348C40.3611 85.7835 39.9444 86.04 39.4636 85.9999C39.0309 85.9598 38.6703 85.5912 38.6223 85.1425C38.6143 85.0623 38.6143 84.9742 38.6143 84.886C38.6143 81.6086 38.6143 78.3311 38.6143 75.0616C38.6143 74.9254 38.6223 74.7731 38.6543 74.6449C38.7825 74.1641 39.1992 73.8916 39.712 73.9477C40.1527 73.9958 40.5213 74.3805 40.5373 74.8452C40.5534 75.0295 40.5453 75.2379 40.5453 75.5184Z" fill="white"/>
<path d="M16.6823 73.9158C16.8345 73.9158 16.9307 73.9158 17.0348 73.9158C17.8201 73.9158 18.6053 73.9158 19.3826 73.9238C19.7832 73.9319 20.0557 74.1482 20.2159 74.5008C20.3762 74.8614 20.3121 75.206 20.0637 75.5025C19.8553 75.7509 19.5829 75.8471 19.2624 75.8471C18.5172 75.8471 17.772 75.8471 17.0268 75.8471C16.9227 75.8471 16.8185 75.8471 16.6983 75.8471C16.6903 75.9432 16.6823 76.0314 16.6823 76.1115C16.6823 78.187 16.6823 80.2624 16.6823 82.3379C16.6823 83.0752 17.0268 83.6121 17.6919 83.9086C18.3569 84.205 18.99 84.0929 19.5268 83.596C19.7672 83.3797 20.0236 83.2515 20.3441 83.2915C20.7287 83.3396 21.0172 83.5319 21.1614 83.9005C21.3057 84.2772 21.2255 84.6298 20.9371 84.9182C20.5124 85.351 20.0156 85.6635 19.4307 85.8398C17.4275 86.4408 15.3201 85.2388 14.8473 83.2194C14.7752 82.8908 14.7512 82.5463 14.7512 82.2097C14.7432 80.1903 14.7432 78.1709 14.7432 76.1516C14.7432 74.1803 14.7432 72.209 14.7432 70.2377C14.7432 70.0934 14.7432 69.9492 14.7752 69.813C14.8874 69.3482 15.3201 69.0517 15.7928 69.0917C16.2496 69.1318 16.6182 69.4924 16.6662 69.9492C16.6743 70.0453 16.6743 70.1415 16.6743 70.2297C16.6743 71.3435 16.6743 72.4574 16.6743 73.5712C16.6823 73.6754 16.6823 73.7796 16.6823 73.9158Z" fill="white"/>
<path d="M55.4003 79.9741C55.4003 81.6168 55.4003 83.2596 55.4003 84.9023C55.4003 85.2229 55.3281 85.4953 55.0878 85.7197C54.5589 86.2245 53.6935 85.9841 53.5012 85.279C53.4692 85.1507 53.4611 85.0145 53.4531 84.8863C53.4531 81.5928 53.4531 78.2993 53.4531 75.0058C53.4531 74.6452 53.5653 74.3407 53.8538 74.1163C54.4227 73.6755 55.2801 74.0281 55.3762 74.7413C55.3922 74.8615 55.3922 74.9897 55.3922 75.1099C55.4003 76.7287 55.4003 78.3554 55.4003 79.9741Z" fill="white"/>
<path d="M55.5289 70.1655C55.5289 70.7825 55.0401 71.2633 54.4311 71.2553C53.8302 71.2473 53.3574 70.7745 53.3574 70.1655C53.3574 69.5485 53.8382 69.0757 54.4552 69.0757C55.0561 69.0917 55.5289 69.5645 55.5289 70.1655Z" fill="white"/>
<path d="M85.0006 46.0212H69.6641V61.3589H85.0006V46.0212Z" fill="#5ABFB8"/>
<path d="M31.7397 61.3668C23.2621 61.3668 16.0185 58.3778 10.033 52.3917C4.05539 46.3977 1.05859 39.1616 1.05859 30.6834C1.05859 22.2212 4.04738 15.0011 10.033 8.99907C16.0265 3.00503 23.2621 0 31.7397 0C40.2012 0 47.4208 3.00503 53.4224 8.99907C59.416 15.0011 62.4288 22.2212 62.4288 30.6834H47.0842C47.0842 26.4523 45.5778 22.8382 42.565 19.8492C39.5762 16.8442 35.9624 15.3457 31.7397 15.3457C27.5169 15.3457 23.9031 16.8442 20.9144 19.8492C17.9096 22.8382 16.4031 26.4523 16.4031 30.6834C16.4031 34.9065 17.9096 38.5205 20.9144 41.5095C23.9031 44.5145 27.5169 46.0211 31.7397 46.0211H38.6788V61.3587H31.7397V61.3668Z" fill="white"/>
<path d="M62.4295 30.6833H47.085V61.3667H62.4295V30.6833Z" fill="white"/>
</g>
<defs>
<clipPath id="clip0">
<rect width="85" height="86" fill="white"/>
</clipPath>
</defs>
</svg>
