<svg width="141" height="30" viewBox="0 0 141 30" fill="none" xmlns="http://www.w3.org/2000/svg">
<g clip-path="url(#clip0)">
<path d="M99.7291 24.4829C99.9551 24.2707 100.088 24.1513 100.221 24.0187C104.714 19.5492 109.206 15.0797 113.686 10.6102C114.058 10.2389 114.457 9.97362 115.001 10.0001C115.693 10.0267 116.158 10.3848 116.424 10.9816C116.69 11.5651 116.596 12.1487 116.158 12.6394C115.879 12.9444 115.56 13.2362 115.267 13.5413C113.234 15.5837 111.2 17.6129 109.166 19.6553C109.073 19.7482 108.98 19.8543 108.847 20.0002C108.967 20.1328 109.073 20.2521 109.193 20.3715C111.466 22.6527 113.739 24.9338 116.025 27.215C116.424 27.6129 116.636 28.0771 116.543 28.6474C116.437 29.2707 116.065 29.7084 115.48 29.9073C114.895 30.1063 114.337 30.0002 113.872 29.5492C113.008 28.6872 112.144 27.8251 111.28 26.9763C109.818 25.5174 108.356 24.0585 106.88 22.6129C106.787 22.52 106.681 22.4272 106.548 22.3078C106.402 22.4405 106.269 22.5731 106.136 22.7057C103.876 24.9471 101.603 27.2017 99.3437 29.4564C98.9848 29.8145 98.586 30.0399 98.0543 30.0134C97.31 29.9869 96.672 29.4431 96.5656 28.7004C96.5391 28.5147 96.5391 28.3291 96.5391 28.1434C96.5391 19.4033 96.5391 10.6765 96.5391 1.93648C96.5391 1.77733 96.5391 1.61818 96.5524 1.47229C96.6321 0.663274 97.2834 0.0664565 98.0809 0.0399313C98.905 0.0134061 99.5962 0.596961 99.7158 1.41924C99.7424 1.61818 99.7424 1.83038 99.7424 2.02932C99.7424 9.29723 99.7424 16.5651 99.7424 23.8198C99.7291 23.9789 99.7291 24.1779 99.7291 24.4829Z" fill="white"/>
<path d="M43.0404 21.5784C43.0935 21.7906 43.1201 21.9498 43.1733 22.0824C44.1436 25.1593 47.2007 27.1222 50.4173 26.7376C51.9326 26.5519 53.2352 25.9418 54.3251 24.8941C54.7903 24.4432 55.322 24.2575 55.96 24.3769C57.0765 24.6023 57.5551 25.9684 56.8506 26.8967C56.7442 27.0294 56.6246 27.1487 56.4917 27.2681C54.5378 29.0585 52.2516 29.9737 49.5799 29.9604C45.4462 29.9471 41.6447 27.4007 40.2491 23.528C37.8698 16.8835 42.2827 11.353 47.2937 10.2389C54.0061 8.74025 58.5386 13.5546 59.4026 17.6527C59.5621 18.4219 59.6552 19.1912 59.6419 19.9737C59.6153 20.8755 58.9773 21.5254 58.0734 21.5519C57.5551 21.5652 57.0367 21.5519 56.5183 21.5519C52.225 21.5519 47.945 21.5519 43.6518 21.5519C43.4657 21.5784 43.2796 21.5784 43.0404 21.5784ZM43.0669 18.3556C47.4665 18.3556 51.8263 18.3556 56.186 18.3556C55.8404 16.1938 53.4745 13.2363 49.7394 13.1832C45.9247 13.1434 43.4657 16.0745 43.0669 18.3556Z" fill="white"/>
<path d="M137.705 27.4008C137.585 27.5069 137.452 27.613 137.332 27.7191C132.016 32.1488 123.496 29.9605 121.356 22.7987C119.761 17.4804 122.911 11.804 128.241 10.3849C134.993 8.58117 139.698 13.3159 140.695 17.4539C140.895 18.2894 141.001 19.1382 141.001 20.0003C141.001 22.7191 141.001 25.4379 141.001 28.1568C141.001 28.369 140.988 28.5944 140.934 28.8066C140.735 29.5891 140.031 30.0666 139.193 29.987C138.449 29.9207 137.851 29.2841 137.811 28.5149C137.784 28.1568 137.811 27.8119 137.811 27.4539C137.771 27.4273 137.744 27.4141 137.705 27.4008ZM130.992 13.1966C127.164 13.1037 124.16 16.4194 124.16 19.9605C124.147 23.4618 127.045 26.7907 130.952 26.7907C134.754 26.7775 137.798 23.7668 137.811 19.987C137.811 16.1939 134.608 13.117 130.992 13.1966Z" fill="white"/>
<path d="M16.8683 27.3344C16.6955 27.467 16.6157 27.5334 16.5493 27.5864C14.6485 29.2177 12.4554 29.9869 9.9565 29.9737C5.78286 29.9604 1.88835 27.2681 0.599038 23.3291C-1.64729 16.5121 3.00486 11.3397 7.71018 10.2522C12.987 9.03202 18.3702 12.1885 19.7393 17.3477C19.9653 18.1832 20.0716 19.032 20.0716 19.8941C20.0716 22.6792 20.0716 25.4511 20.0716 28.2363C20.0716 28.7137 19.952 29.1249 19.633 29.483C19.1943 29.9604 18.5165 30.1328 17.9183 29.8941C17.2936 29.6554 16.9347 29.1779 16.8816 28.5148C16.8417 28.1567 16.8683 27.7986 16.8683 27.3344ZM3.23082 19.9604C3.21753 23.7535 6.22149 26.7774 9.99638 26.7906C13.8111 26.8039 16.8284 23.7933 16.855 20.0002C16.8816 16.2469 13.7048 13.1965 10.0495 13.1832C6.27466 13.17 3.16437 16.3662 3.23082 19.9604Z" fill="white"/>
<path d="M67.258 12.6526C67.5106 12.4537 67.6568 12.321 67.8163 12.2017C73.1596 7.85153 81.5866 10.0929 83.7266 17.268C83.9393 17.9576 84.0456 18.7136 84.0589 19.4298C84.0988 22.4139 84.0722 25.398 84.0855 28.382C84.0855 29.0452 83.607 29.8011 82.7962 29.9603C82.0518 30.1062 81.3075 29.7348 81.0284 29.0452C80.922 28.7667 80.8822 28.4351 80.8822 28.13C80.8689 25.4775 80.8822 22.8117 80.8689 20.1592C80.8689 19.5491 80.8157 18.9391 80.6828 18.3555C80.0182 15.4377 77.3067 13.2627 74.3027 13.2096C71.0462 13.1566 68.2815 15.1725 67.4973 18.2361C67.3378 18.833 67.2713 19.4696 67.2713 20.0929C67.2447 22.7852 67.258 25.4643 67.258 28.1566C67.258 28.4086 67.2447 28.6606 67.1783 28.8993C66.9523 29.642 66.2611 30.0664 65.4636 30.0001C64.7459 29.9338 64.1477 29.3237 64.068 28.581C64.0547 28.4484 64.0547 28.3025 64.0547 28.1566C64.0547 22.7322 64.0547 17.321 64.0547 11.8966C64.0547 11.6712 64.068 11.4192 64.1211 11.207C64.3338 10.4112 65.025 9.96028 65.8757 10.0531C66.6067 10.1327 67.2181 10.7693 67.2447 11.5385C67.2713 11.8436 67.258 12.1884 67.258 12.6526Z" fill="white"/>
<path d="M27.6737 10.0001C27.9262 10.0001 28.0857 10.0001 28.2585 10.0001C29.5611 10.0001 30.8637 10.0001 32.153 10.0133C32.8176 10.0266 33.2695 10.3847 33.5354 10.9682C33.8012 11.5651 33.6949 12.1354 33.2828 12.6261C32.9372 13.0372 32.4853 13.1964 31.9536 13.1964C30.7175 13.1964 29.4814 13.1964 28.2452 13.1964C28.0724 13.1964 27.8996 13.1964 27.7002 13.1964C27.687 13.3555 27.6737 13.5014 27.6737 13.634C27.6737 17.069 27.6737 20.5041 27.6737 23.9391C27.6737 25.1592 28.2452 26.0478 29.3484 26.5385C30.4517 27.0293 31.5017 26.8436 32.3923 26.0213C32.791 25.6632 33.2164 25.451 33.748 25.5173C34.386 25.5969 34.8646 25.9152 35.1038 26.5253C35.3431 27.1486 35.2101 27.7322 34.7316 28.2096C34.0272 28.9258 33.2031 29.443 32.2328 29.7348C28.9098 30.7295 25.414 28.7401 24.6298 25.398C24.5102 24.8542 24.4703 24.2839 24.4703 23.7269C24.457 20.3847 24.457 17.0425 24.457 13.7003C24.457 10.4377 24.457 7.17514 24.457 3.91254C24.457 3.67382 24.457 3.43509 24.5102 3.20963C24.6963 2.44039 25.414 1.94968 26.1983 2.01599C26.9559 2.0823 27.5673 2.67912 27.6471 3.43509C27.6604 3.59424 27.6604 3.75339 27.6604 3.89928C27.6604 5.74278 27.6604 7.58628 27.6604 9.42978C27.6737 9.6022 27.6737 9.77461 27.6737 10.0001Z" fill="white"/>
<path d="M91.9008 20.0266C91.9008 22.7454 91.9008 25.4642 91.9008 28.1831C91.9008 28.7136 91.7812 29.1645 91.3824 29.5359C90.5052 30.3714 89.0697 29.9735 88.7507 28.8064C88.6975 28.5942 88.6842 28.3687 88.6709 28.1565C88.6709 22.7056 88.6709 17.2547 88.6709 11.8038C88.6709 11.2069 88.857 10.703 89.3355 10.3316C90.2792 9.60216 91.7014 10.1857 91.861 11.3661C91.8875 11.565 91.8875 11.7772 91.8875 11.9762C91.9008 14.6552 91.9008 17.3343 91.9008 20.0266Z" fill="white"/>
<path d="M92.1138 3.79322C92.1138 4.81444 91.303 5.61019 90.2928 5.59693C89.2959 5.58367 88.5117 4.80117 88.5117 3.79322C88.5117 2.772 89.3092 1.9895 90.3327 1.9895C91.3296 2.01603 92.1138 2.79852 92.1138 3.79322Z" fill="white"/>
</g>
<defs>
<clipPath id="clip0">
<rect width="141" height="30" fill="white"/>
</clipPath>
</defs>
</svg>
